<mxfile host="65bd71144e">
    <diagram id="a5qFpmIPfc33E41wW6Xs" name="第 1 页">
        <mxGraphModel dx="699" dy="680" grid="1" gridSize="10" guides="1" tooltips="1" connect="1" arrows="1" fold="1" page="1" pageScale="1" pageWidth="827" pageHeight="1169" math="0" shadow="0">
            <root>
                <mxCell id="0"/>
                <mxCell id="1" parent="0"/>
                <mxCell id="2" value="p1" style="rhombus;whiteSpace=wrap;html=1;" parent="1" vertex="1">
                    <mxGeometry x="150" y="80" width="90" height="40" as="geometry"/>
                </mxCell>
                <mxCell id="3" value="p4" style="rhombus;whiteSpace=wrap;html=1;" parent="1" vertex="1">
                    <mxGeometry x="150" y="204" width="90" height="40" as="geometry"/>
                </mxCell>
                <mxCell id="4" value="p2" style="rhombus;whiteSpace=wrap;html=1;" parent="1" vertex="1">
                    <mxGeometry x="150" y="284" width="90" height="40" as="geometry"/>
                </mxCell>
                <mxCell id="5" value="p3" style="rhombus;whiteSpace=wrap;html=1;" parent="1" vertex="1">
                    <mxGeometry x="150" y="364" width="90" height="40" as="geometry"/>
                </mxCell>
                <mxCell id="6" value="新节点" style="text;html=1;strokeColor=none;fillColor=none;align=center;verticalAlign=middle;whiteSpace=wrap;rounded=0;" parent="1" vertex="1">
                    <mxGeometry x="165" y="20" width="60" height="30" as="geometry"/>
                </mxCell>
                <mxCell id="7" value="p1" style="rhombus;whiteSpace=wrap;html=1;" parent="1" vertex="1">
                    <mxGeometry x="350" y="80" width="90" height="40" as="geometry"/>
                </mxCell>
                <mxCell id="9" value="p2" style="rhombus;whiteSpace=wrap;html=1;" parent="1" vertex="1">
                    <mxGeometry x="350" y="194" width="90" height="40" as="geometry"/>
                </mxCell>
                <mxCell id="10" value="p3" style="rhombus;whiteSpace=wrap;html=1;" parent="1" vertex="1">
                    <mxGeometry x="350" y="274" width="90" height="40" as="geometry"/>
                </mxCell>
                <mxCell id="11" value="旧节点" style="text;html=1;strokeColor=none;fillColor=none;align=center;verticalAlign=middle;whiteSpace=wrap;rounded=0;" parent="1" vertex="1">
                    <mxGeometry x="365" y="20" width="60" height="30" as="geometry"/>
                </mxCell>
                <mxCell id="14" value="" style="rounded=0;whiteSpace=wrap;html=1;fillStyle=auto;dashed=1;dashPattern=8 8;fillColor=none;" parent="1" vertex="1">
                    <mxGeometry x="140" y="70" width="330" height="70" as="geometry"/>
                </mxCell>
                <mxCell id="15" value="" style="rounded=0;whiteSpace=wrap;html=1;fillStyle=auto;dashed=1;dashPattern=8 8;rotation=-30;fillColor=none;" parent="1" vertex="1">
                    <mxGeometry x="117.99" y="222.5" width="360" height="170" as="geometry"/>
                </mxCell>
                <mxCell id="16" value="j" style="text;html=1;strokeColor=none;fillColor=none;align=center;verticalAlign=middle;whiteSpace=wrap;rounded=0;fillStyle=auto;" vertex="1" parent="1">
                    <mxGeometry x="30" y="90" width="60" height="30" as="geometry"/>
                </mxCell>
                <mxCell id="22" value="" style="edgeStyle=none;html=1;" edge="1" parent="1" source="17">
                    <mxGeometry relative="1" as="geometry">
                        <mxPoint x="490" y="100" as="targetPoint"/>
                    </mxGeometry>
                </mxCell>
                <mxCell id="17" value="j" style="text;html=1;strokeColor=none;fillColor=none;align=center;verticalAlign=middle;whiteSpace=wrap;rounded=0;fillStyle=auto;" vertex="1" parent="1">
                    <mxGeometry x="530" y="85" width="60" height="30" as="geometry"/>
                </mxCell>
                <mxCell id="18" value="oldEnd" style="text;html=1;strokeColor=none;fillColor=none;align=center;verticalAlign=middle;whiteSpace=wrap;rounded=0;fillStyle=auto;" vertex="1" parent="1">
                    <mxGeometry x="580" y="274" width="60" height="30" as="geometry"/>
                </mxCell>
                <mxCell id="19" value="newEnd" style="text;html=1;strokeColor=none;fillColor=none;align=center;verticalAlign=middle;whiteSpace=wrap;rounded=0;fillStyle=auto;" vertex="1" parent="1">
                    <mxGeometry x="30.00000000000001" y="374" width="60" height="30" as="geometry"/>
                </mxCell>
                <mxCell id="21" value="" style="endArrow=classic;html=1;" edge="1" parent="1" source="16" target="14">
                    <mxGeometry width="50" height="50" relative="1" as="geometry">
                        <mxPoint x="330" y="210" as="sourcePoint"/>
                        <mxPoint x="380" y="160" as="targetPoint"/>
                    </mxGeometry>
                </mxCell>
                <mxCell id="24" value="" style="endArrow=classic;html=1;" edge="1" parent="1">
                    <mxGeometry width="50" height="50" relative="1" as="geometry">
                        <mxPoint x="80" y="390" as="sourcePoint"/>
                        <mxPoint x="130" y="390" as="targetPoint"/>
                    </mxGeometry>
                </mxCell>
                <mxCell id="25" value="" style="endArrow=classic;html=1;exitX=0;exitY=0.5;exitDx=0;exitDy=0;" edge="1" parent="1" source="18">
                    <mxGeometry width="50" height="50" relative="1" as="geometry">
                        <mxPoint x="520" y="260" as="sourcePoint"/>
                        <mxPoint x="520" y="290" as="targetPoint"/>
                    </mxGeometry>
                </mxCell>
            </root>
        </mxGraphModel>
    </diagram>
</mxfile>